<?xml version="1.0" encoding="utf-8"?>
<!-- Generator: Adobe Illustrator 17.0.0, SVG Export Plug-In . SVG Version: 6.00 Build 0)  -->
<!DOCTYPE svg PUBLIC "-//W3C//DTD SVG 1.1//EN" "http://www.w3.org/Graphics/SVG/1.1/DTD/svg11.dtd">
<svg version="1.1" id="Capa_1" xmlns="http://www.w3.org/2000/svg" xmlns:xlink="http://www.w3.org/1999/xlink" x="0px" y="0px"
	 width="1000px" height="1000px" viewBox="0 0 1000 1000" enable-background="new 0 0 1000 1000" xml:space="preserve">
<path fill="#FFFFFF" d="M250.568,608.717h19.807c6.188,27.37,30.686,47.875,59.9,47.875c29.214,0,53.712-20.506,59.9-47.875h203.222
	c6.188,27.37,30.687,47.875,59.902,47.875s53.712-20.506,59.902-47.875h37.51c32.455,0,58.862-26.404,58.862-58.861V533
	c0-32.455-26.406-58.861-58.862-58.861h-91.894l-32.662-59.098c-24.199-43.797-70.32-71.005-120.367-71.005H260.567
	c-37.969,0-68.86,30.902-68.86,68.886v136.932C191.708,582.313,218.112,608.717,250.568,608.717z M330.275,629.493
	c-18.927,0-34.326-15.398-34.326-34.326c0-18.927,15.398-34.326,34.326-34.326c18.927,0,34.326,15.4,34.326,34.326
	C364.601,614.094,349.203,629.493,330.275,629.493z M653.3,629.493c-18.927,0-34.326-15.398-34.326-34.326
	c0-18.927,15.4-34.326,34.326-34.326c18.927,0,34.326,15.4,34.326,34.326C687.626,614.094,672.227,629.493,653.3,629.493z
	 M750.711,501.241c13.944,0,25.79,9.044,30.052,21.563h-39.246v27.099h40.953c-0.025,17.491-14.262,31.715-31.76,31.715H713.2
	c-6.188-27.37-30.687-47.877-59.902-47.877c-29.215,0-53.712,20.507-59.902,47.877h-203.22c-6.188-27.37-30.686-47.877-59.9-47.877
	s-53.712,20.507-59.9,47.877h-19.807c-17.512,0-31.761-14.249-31.761-31.761v-77.54h408.04l15.986,28.924h107.877L750.711,501.241
	L750.711,501.241z M411.515,371.138l-70.697,74.08h-69.582l70.698-74.08H411.515z M464.778,371.138v74.08h-86.5l70.696-74.08
	H464.778z M611.868,445.218h-75.527l43.002-46.009c9.135,8.156,16.985,17.888,23.092,28.941L611.868,445.218z M556.78,383.661
	l-57.533,61.557h-7.37v-74.08h13.911C523.869,371.138,541.292,375.593,556.78,383.661z M260.567,371.138h43.905l-70.697,74.08
	h-14.969v-32.293C218.807,389.884,237.541,371.138,260.567,371.138z"/>
</svg>
