<?xml version="1.0" encoding="utf-8"?>
<!-- Generator: Adobe Illustrator 17.0.0, SVG Export Plug-In . SVG Version: 6.00 Build 0)  -->
<!DOCTYPE svg PUBLIC "-//W3C//DTD SVG 1.1//EN" "http://www.w3.org/Graphics/SVG/1.1/DTD/svg11.dtd">
<svg version="1.1" id="Capa_1" xmlns="http://www.w3.org/2000/svg" xmlns:xlink="http://www.w3.org/1999/xlink" x="0px" y="0px"
	 width="1000px" height="1000px" viewBox="0 0 1000 1000" enable-background="new 0 0 1000 1000" xml:space="preserve">
<g id="icon_109" display="none">
	<path display="inline" fill-rule="evenodd" clip-rule="evenodd" fill="#1B1A1B" d="M534.752,326.24h-69.504v69.504h69.504V326.24z
		 M673.76,604.256h-69.504v69.504h69.504V604.256z M673.76,465.257h-69.504v69.495h69.504V465.257z M534.752,465.257h-69.504v69.495
		h69.504V465.257z M812.767,465.257h-69.504v69.495h69.504V465.257z M534.752,604.256h-69.504v69.504h69.504V604.256z
		 M812.767,326.24h-69.504v69.504h69.504V326.24z M812.767,604.256h-69.504v69.504h69.504V604.256z M673.76,326.24h-69.504v69.504
		h69.504V326.24z M256.745,743.264h-69.513v69.504h69.513V743.264z M256.745,604.256h-69.513v69.504h69.513V604.256z
		 M395.753,743.264H326.24v69.504h69.513V743.264z M534.752,743.264h-69.504v69.504h69.504V743.264z M82.977,82.977v834.047h834.047
		V82.977H82.977z M882.271,882.271H117.729V256.736h764.543V882.271z M256.745,465.257h-69.513v69.495h69.513V465.257z
		 M395.753,326.24H326.24v69.504h69.513V326.24z M395.753,465.257H326.24v69.495h69.513V465.257z M395.753,604.256H326.24v69.504
		h69.513V604.256z M673.76,743.264h-69.504v69.504h69.504V743.264z"/>
</g>
<g id="icon_065" display="none">
	<path display="inline" fill-rule="evenodd" clip-rule="evenodd" fill="#FFFFFF" d="M82.977,256.728h139.008v-34.743H82.977V256.728
		z M82.977,604.256h139.008v-34.752H82.977V604.256z M82.977,778.016h139.008v-34.743H82.977V778.016z M82.977,430.496h139.008
		v-34.752H82.977V430.496z M360.992,221.984v34.743h556.031v-34.743H360.992z M360.992,430.496h556.031v-34.752H360.992V430.496z
		 M360.992,604.256h556.031v-34.752H360.992V604.256z M360.992,778.016h556.031v-34.743H360.992V778.016z"/>
</g>
<g id="icon_254" display="none">
	<path display="inline" fill-rule="evenodd" clip-rule="evenodd" fill="#FFFFFF" d="M225.86,174.459
		c-28.385,0-51.401,23.007-51.401,51.401s23.016,51.401,51.401,51.401s51.401-23.007,51.401-51.401S254.246,174.459,225.86,174.459z
		 M431.465,88.791H225.86c-75.705,0-137.07,61.373-137.07,137.07v205.605l479.744,479.744l342.674-342.674L431.465,88.791z
		 M123.058,414.331V225.86c0-56.689,46.114-102.802,102.802-102.802h188.471l445.477,445.477L568.535,859.808L123.058,414.331z
		 M757.006,534.267L534.267,757.006l34.267,34.267l222.738-222.738L757.006,534.267z M688.471,465.733L465.733,688.471L500,722.738
		L722.738,500L688.471,465.733z"/>
</g>
<g id="icon_273" display="none">
	<path display="inline" fill-rule="evenodd" clip-rule="evenodd" fill="#FFFFFF" d="M500,84.465
		C270.506,84.465,84.465,270.506,84.465,500S270.506,915.535,500,915.535S915.535,729.494,915.535,500S729.493,84.465,500,84.465z
		 M116.429,500c0-211.498,172.073-383.571,383.571-383.571S883.571,288.502,883.571,500c0,92.88-33.205,178.145-88.338,244.585
		c-12.378-24.598-28.282-42.578-47.87-47.462l-146.508-26.642c-13.313-26.642-13.265-38.223-13.313-53.284
		c13.313-13.313,39.955-26.626,39.955-39.955c13.329-39.939,13.329-66.597,13.329-66.597c6.883-9.957,26.626-26.626,26.626-53.252
		c0-26.658-26.626-53.284-26.626-66.597c0-106.553-54.267-146.508-133.195-146.508c-75.517,0-133.187,39.955-133.187,146.508
		c0,13.313-26.634,39.939-26.634,66.597c0,26.626,19.057,44.17,26.634,53.252c0,0,0,26.658,13.321,66.597
		c0,13.329,26.642,26.642,39.955,39.955c0,13.329,0,26.642-13.313,53.284L267.9,697.123c-22.514,5.618-40.221,28.467-53.214,58.902
		C153.645,688.071,116.429,598.312,116.429,500z"/>
</g>
<g id="icon_265" display="none">
	<path display="inline" fill-rule="evenodd" clip-rule="evenodd" fill="#FFFFFF" d="M849.612,220.31H150.388
		c-38.615,0-69.922,31.308-69.922,69.922v419.535c0,38.615,31.308,69.922,69.922,69.922h699.225
		c38.615,0,69.922-31.308,69.922-69.922V290.233C919.535,251.618,888.227,220.31,849.612,220.31z M150.388,255.271h699.225
		c19.307,0,34.961,15.654,34.961,34.961v297.171H115.426V290.233C115.426,270.925,131.08,255.271,150.388,255.271z M849.612,744.729
		H150.388c-19.308,0-34.961-15.654-34.961-34.961v-87.403h769.147v87.403C884.574,729.075,868.919,744.729,849.612,744.729z"/>
</g>
<g id="icon_109_1_" display="none">
	<path display="inline" fill-rule="evenodd" clip-rule="evenodd" fill="#FFFFFF" d="M526.756,336.221h-71.512v71.512h71.512V336.221
		z M669.779,622.268h-71.512v71.512h71.512V622.268z M669.779,479.253h-71.512v71.503h71.512V479.253z M526.756,479.253h-71.512
		v71.503h71.512V479.253z M812.803,479.253h-71.512v71.503h71.512V479.253z M526.756,622.268h-71.512v71.512h71.512V622.268z
		 M812.803,336.221h-71.512v71.512h71.512V336.221z M812.803,622.268h-71.512v71.512h71.512V622.268z M669.779,336.221h-71.512
		v71.512h71.512V336.221z M240.718,765.291h-71.521v71.512h71.521V765.291z M240.718,622.268h-71.521v71.512h71.521V622.268z
		 M383.741,765.291h-71.521v71.512h71.521V765.291z M526.756,765.291h-71.512v71.512h71.512V765.291z M61.93,85.93V944.07H920.07
		V85.93H61.93z M884.315,908.315H97.685V264.709h786.629V908.315z M240.718,479.253h-71.521v71.503h71.521V479.253z
		 M383.741,336.221h-71.521v71.512h71.521V336.221z M383.741,479.253h-71.521v71.503h71.521V479.253z M383.741,622.268h-71.521
		v71.512h71.521V622.268z M669.779,765.291h-71.512v71.512h71.512V765.291z"/>
</g>
<g id="icon_190">
	<path fill-rule="evenodd" clip-rule="evenodd" fill="#FFFFFF" d="M495.302,230.855c-98.053,0-177.552,79.499-177.552,177.552
		s79.499,177.552,177.552,177.552c98.053,0,177.552-79.499,177.552-177.552S593.355,230.855,495.302,230.855z M495.302,550.448
		c-78.442,0-142.042-63.599-142.042-142.042s63.599-142.042,142.042-142.042s142.042,63.599,142.042,142.042
		S573.745,550.448,495.302,550.448z M495.302,88.813c-177.552,0-319.594,142.042-319.594,319.594
		c0,61.346,18.38,108.855,50.093,156.97h0.018l235.81,357.792v0.052c7.109,10.733,19.541,17.842,33.655,17.842h0.018
		c14.167,0,26.615-7.143,33.69-17.894l235.81-357.792c31.713-48.115,50.093-95.624,50.093-156.97
		C814.896,230.855,672.854,88.813,495.302,88.813z M735.154,545.836L499.341,903.628c-0.225,0.346-1.404,1.925-4.039,1.925
		c-1.804,0-3.104-0.779-3.814-1.612l-236.02-358.105c-31.02-47.023-44.249-88.133-44.249-137.429
		c0-156.642,127.441-284.083,284.083-284.083c156.641,0,284.083,127.442,284.083,284.083
		C779.386,457.702,766.156,498.795,735.154,545.836z"/>
</g>
</svg>
