<?xml version="1.0" encoding="utf-8"?>
<!-- Generator: Adobe Illustrator 17.0.0, SVG Export Plug-In . SVG Version: 6.00 Build 0)  -->
<!DOCTYPE svg PUBLIC "-//W3C//DTD SVG 1.1//EN" "http://www.w3.org/Graphics/SVG/1.1/DTD/svg11.dtd">
<svg version="1.1" id="Capa_1" xmlns="http://www.w3.org/2000/svg" xmlns:xlink="http://www.w3.org/1999/xlink" x="0px" y="0px"
	 width="1000px" height="1000px" viewBox="0 0 1000 1000" enable-background="new 0 0 1000 1000" xml:space="preserve">
<g id="icon_104">
	<path fill-rule="evenodd" clip-rule="evenodd" fill="#FFFFFF" d="M500,268.337H345.56v25.74H500V268.337z M500,345.557H345.56
		v25.74H500V345.557z M577.22,191.117H268.34v617.767h463.32V345.557L577.22,191.117z M577.22,229.727l115.83,115.83H577.22V229.727
		z M705.92,783.137H294.08v-566.28h257.4v154.44h154.44V783.137z M345.56,448.517h308.88v-25.74H345.56V448.517z M345.56,525.737
		h308.88v-25.74H345.56V525.737z M345.56,602.957h308.88v-25.74H345.56V602.957z M345.56,680.177H500v-25.74H345.56V680.177z"/>
</g>
</svg>
