<?xml version="1.0" encoding="utf-8"?>
<!-- Generator: Adobe Illustrator 17.0.0, SVG Export Plug-In . SVG Version: 6.00 Build 0)  -->
<!DOCTYPE svg PUBLIC "-//W3C//DTD SVG 1.1//EN" "http://www.w3.org/Graphics/SVG/1.1/DTD/svg11.dtd">
<svg version="1.1" id="Capa_1" xmlns="http://www.w3.org/2000/svg" xmlns:xlink="http://www.w3.org/1999/xlink" x="0px" y="0px"
	 width="1000px" height="1000px" viewBox="0 0 1000 1000" enable-background="new 0 0 1000 1000" xml:space="preserve">
<g id="icon_109" display="none">
	<path display="inline" fill="#1B1A1B" d="M534.752,326.24h-69.504v69.504h69.504V326.24z M673.76,604.256h-69.504v69.504h69.504
		V604.256z M673.76,465.257h-69.504v69.495h69.504V465.257z M534.752,465.257h-69.504v69.495h69.504V465.257z M812.767,465.257
		h-69.504v69.495h69.504L812.767,465.257L812.767,465.257z M534.752,604.256h-69.504v69.504h69.504V604.256z M812.767,326.24
		h-69.504v69.504h69.504L812.767,326.24L812.767,326.24z M812.767,604.256h-69.504v69.504h69.504L812.767,604.256L812.767,604.256z
		 M673.76,326.24h-69.504v69.504h69.504V326.24z M256.745,743.264h-69.513v69.504h69.513V743.264z M256.745,604.256h-69.513v69.504
		h69.513V604.256z M395.753,743.264H326.24v69.504h69.513V743.264z M534.752,743.264h-69.504v69.504h69.504V743.264z M82.977,82.977
		v834.047h834.047V82.977H82.977z M882.271,882.271H117.729V256.736h764.543v625.535H882.271z M256.745,465.257h-69.513v69.495
		h69.513V465.257z M395.753,326.24H326.24v69.504h69.513V326.24z M395.753,465.257H326.24v69.495h69.513V465.257z M395.753,604.256
		H326.24v69.504h69.513V604.256z M673.76,743.264h-69.504v69.504h69.504V743.264z"/>
</g>
<g id="icon_065" display="none">
	<path display="inline" fill="#FFFFFF" d="M82.977,256.728h139.008v-34.743H82.977V256.728z M82.977,604.256h139.008v-34.752H82.977
		V604.256z M82.977,778.016h139.008v-34.743H82.977V778.016z M82.977,430.496h139.008v-34.752H82.977V430.496z M360.992,221.984
		v34.743h556.031v-34.743H360.992z M360.992,430.496h556.031v-34.752H360.992V430.496z M360.992,604.256h556.031v-34.752H360.992
		V604.256z M360.992,778.016h556.031v-34.743H360.992V778.016z"/>
</g>
<g id="icon_254" display="none">
	<path display="inline" fill="#FFFFFF" d="M225.86,174.459c-28.385,0-51.401,23.007-51.401,51.401s23.016,51.401,51.401,51.401
		s51.401-23.007,51.401-51.401S254.246,174.459,225.86,174.459z M431.465,88.791H225.86c-75.705,0-137.07,61.373-137.07,137.07
		v205.605L568.534,911.21l342.674-342.674L431.465,88.791z M123.058,414.331V225.86c0-56.689,46.114-102.802,102.802-102.802
		h188.471l445.477,445.477L568.535,859.808L123.058,414.331z M757.006,534.267L534.267,757.006l34.267,34.267l222.738-222.738
		L757.006,534.267z M688.471,465.733L465.733,688.471L500,722.738L722.738,500L688.471,465.733z"/>
</g>
<g id="icon_273" display="none">
	<path display="inline" fill="#FFFFFF" d="M500,84.465C270.506,84.465,84.465,270.506,84.465,500S270.506,915.535,500,915.535
		S915.535,729.494,915.535,500S729.493,84.465,500,84.465z M116.429,500c0-211.498,172.073-383.571,383.571-383.571
		S883.571,288.502,883.571,500c0,92.88-33.205,178.145-88.338,244.585c-12.378-24.598-28.282-42.578-47.87-47.462l-146.508-26.642
		c-13.313-26.642-13.265-38.223-13.313-53.284c13.313-13.313,39.955-26.626,39.955-39.955
		c13.329-39.939,13.329-66.597,13.329-66.597c6.883-9.957,26.626-26.626,26.626-53.252c0-26.658-26.626-53.284-26.626-66.597
		c0-106.553-54.267-146.508-133.195-146.508c-75.517,0-133.187,39.955-133.187,146.508c0,13.313-26.634,39.939-26.634,66.597
		c0,26.626,19.057,44.17,26.634,53.252c0,0,0,26.658,13.321,66.597c0,13.329,26.642,26.642,39.955,39.955
		c0,13.329,0,26.642-13.313,53.284L267.9,697.123c-22.514,5.618-40.221,28.467-53.214,58.902
		C153.645,688.071,116.429,598.312,116.429,500z"/>
</g>
<g id="icon_265" display="none">
	<path display="inline" fill="#FFFFFF" d="M849.612,220.31H150.388c-38.615,0-69.922,31.308-69.922,69.922v419.535
		c0,38.615,31.308,69.922,69.922,69.922h699.225c38.615,0,69.922-31.308,69.922-69.922V290.233
		C919.535,251.618,888.227,220.31,849.612,220.31z M150.388,255.271h699.225c19.307,0,34.961,15.654,34.961,34.961v297.171H115.426
		v-297.17C115.426,270.925,131.08,255.271,150.388,255.271z M849.612,744.729H150.388c-19.308,0-34.961-15.654-34.961-34.961
		v-87.403h769.147v87.403C884.574,729.075,868.919,744.729,849.612,744.729z"/>
</g>
<g id="icon_109_1_" display="none">
	<path display="inline" fill="#FFFFFF" d="M526.756,336.221h-71.512v71.512h71.512V336.221z M669.779,622.268h-71.512v71.512h71.512
		V622.268z M669.779,479.253h-71.512v71.503h71.512V479.253z M526.756,479.253h-71.512v71.503h71.512V479.253z M812.803,479.253
		h-71.512v71.503h71.512V479.253z M526.756,622.268h-71.512v71.512h71.512V622.268z M812.803,336.221h-71.512v71.512h71.512V336.221
		z M812.803,622.268h-71.512v71.512h71.512V622.268z M669.779,336.221h-71.512v71.512h71.512V336.221z M240.718,765.291h-71.521
		v71.512h71.521L240.718,765.291L240.718,765.291z M240.718,622.268h-71.521v71.512h71.521L240.718,622.268L240.718,622.268z
		 M383.741,765.291H312.22v71.512h71.521V765.291z M526.756,765.291h-71.512v71.512h71.512V765.291z M61.93,85.93v858.14h858.14
		V85.93H61.93z M884.315,908.315H97.685V264.709h786.629L884.315,908.315L884.315,908.315z M240.718,479.253h-71.521v71.503h71.521
		L240.718,479.253L240.718,479.253z M383.741,336.221H312.22v71.512h71.521V336.221z M383.741,479.253H312.22v71.503h71.521V479.253
		z M383.741,622.268H312.22v71.512h71.521V622.268z M669.779,765.291h-71.512v71.512h71.512V765.291z"/>
</g>
<g id="icon_190">
	<path fill="#FFFFFF" d="M500,278.584c-43.343,0-78.485,35.141-78.485,78.485s35.142,78.485,78.485,78.485
		c43.343,0,78.485-35.142,78.485-78.485S543.343,278.584,500,278.584z M500,419.856c-34.674,0-62.788-28.113-62.788-62.788
		S465.326,294.28,500,294.28s62.788,28.113,62.788,62.788S534.675,419.856,500,419.856z M500,215.796
		c-78.485,0-141.272,62.788-141.272,141.272c0,27.117,8.125,48.118,22.143,69.387h0.008l104.237,158.157v0.023
		c3.142,4.744,8.638,7.887,14.877,7.887H500c6.262,0,11.765-3.157,14.892-7.91l104.237-158.157
		c14.018-21.269,22.143-42.269,22.143-69.387C641.273,278.584,578.485,215.796,500,215.796z M606.024,417.817L501.786,575.975
		c-0.099,0.153-0.621,0.851-1.785,0.851c-0.797,0-1.372-0.344-1.686-0.713l-104.33-158.296
		c-13.712-20.786-19.56-38.958-19.56-60.749c0-69.242,56.334-125.575,125.575-125.575c69.241,0,125.575,56.334,125.575,125.575
		C625.576,378.859,619.728,397.023,606.024,417.817z"/>
</g>
<g id="icon_028">
	<polygon fill-rule="evenodd" clip-rule="evenodd" fill="#FFFFFF" points="456.445,767.952 464.612,759.785 407.446,702.619 
		614.332,702.619 614.332,691.73 407.446,691.73 464.612,634.564 456.445,626.398 385.668,697.175 	"/>
</g>
</svg>
