<?xml version="1.0" encoding="utf-8"?>
<!-- Generator: Adobe Illustrator 17.0.0, SVG Export Plug-In . SVG Version: 6.00 Build 0)  -->
<!DOCTYPE svg PUBLIC "-//W3C//DTD SVG 1.1//EN" "http://www.w3.org/Graphics/SVG/1.1/DTD/svg11.dtd">
<svg version="1.1" id="Capa_1" xmlns="http://www.w3.org/2000/svg" xmlns:xlink="http://www.w3.org/1999/xlink" x="0px" y="0px"
	 width="91.824px" height="22.686px" viewBox="0 0 91.824 22.686" enable-background="new 0 0 91.824 22.686" xml:space="preserve">
<g>
	<circle fill="#0099D8" cx="8.828" cy="8.592" r="5.404"/>
	<circle fill="none" stroke="#0099D8" stroke-width="0.0395" stroke-miterlimit="3.864" cx="8.828" cy="8.592" r="5.404"/>
	<path fill-rule="evenodd" clip-rule="evenodd" fill="#FFFFFF" d="M7.999,9.065h0.854c0.186,0,0.418,0,0.584,0.094
		c0.166,0.094,0.282,0.288,0.282,0.477c0,0.202-0.094,0.405-0.261,0.514c-0.181,0.122-0.447,0.108-0.657,0.108H7.999V9.065
		 M7.999,7.099h0.7c0.196,0,0.499-0.022,0.665,0.071c0.16,0.095,0.245,0.269,0.245,0.448c0,0.167-0.071,0.348-0.208,0.448
		C9.228,8.198,8.989,8.184,8.786,8.184H7.999V7.099z M6.843,6.218v4.956h2.218c0.427,0,0.911,0,1.272-0.267
		c0.347-0.253,0.607-0.636,0.607-1.069c0-0.642-0.419-1.112-1.033-1.235V8.587c0.521-0.129,0.896-0.506,0.896-1.069
		c0-0.47-0.209-0.831-0.607-1.084C9.857,6.218,9.451,6.218,9.061,6.218H6.843z"/>
	<g>
		<path fill-rule="evenodd" clip-rule="evenodd" fill="#1E1D1B" d="M26.305,8.755C25.455,6.349,23.474,5.5,21.048,5.5
			c-1.273,0-2.465,0.283-3.476,1.132c-0.99,0.829-1.495,1.961-1.495,3.255c0,3.031,2.424,3.759,4.892,4.266
			c0.848,0.18,2.426,0.402,2.426,1.556c0,1.151-1.233,1.494-2.162,1.494c-1.437,0-2.487-0.505-2.892-1.96L15.35,15.93
			c0.625,2.709,2.991,3.841,5.598,3.841c1.395,0,2.912-0.264,4.023-1.132c1.07-0.83,1.718-2.123,1.718-3.477
			c0-1.375-0.686-2.527-1.818-3.274c-0.97-0.647-2.485-0.931-3.619-1.173c-0.787-0.142-2-0.384-2-1.396
			c0-1.069,1.053-1.292,1.919-1.292c1.232,0,1.982,0.464,2.385,1.638L26.305,8.755z"/>
		<path fill-rule="evenodd" clip-rule="evenodd" fill="#1E1D1B" d="M36.812,19.569c-0.164-0.506-0.203-1.013-0.203-1.537v-4.79
			c0-1.233,0.103-2.363-0.951-3.213c-0.828-0.688-2.201-0.931-3.252-0.931c-2.163,0-4.589,0.729-4.892,3.213l2.809,0.265
			c0-1.011,0.828-1.495,1.779-1.495c0.442,0,0.948,0.141,1.212,0.484c0.302,0.384,0.262,0.909,0.262,1.354v0.241
			c-1.251,0.123-2.89,0.204-4.062,0.648c-1.352,0.507-2.304,1.537-2.304,3.053c0,1.939,1.414,2.911,3.233,2.911
			c1.537,0,2.426-0.588,3.273-1.799c-0.017,0.525,0.024,1.07,0.143,1.597H36.812z M33.575,15.061c0,0.727,0.022,1.334-0.401,1.98
			c-0.346,0.525-0.89,0.849-1.497,0.849c-0.828,0-1.313-0.546-1.313-1.354c0-1.496,2.08-1.758,3.212-1.88V15.061z"/>
		<path fill-rule="evenodd" clip-rule="evenodd" fill="#1E1D1B" d="M41.453,13.787c0-1.092,0.204-2.647,1.638-2.647
			c1.638,0,1.638,2.142,1.638,3.294c0,1.112,0,3.254-1.679,3.254c-0.542,0-0.969-0.263-1.252-0.708
			c-0.322-0.504-0.345-1.151-0.345-1.717V13.787z M38.441,19.569h1.619c0.181-0.546,0.302-1.134,0.666-1.578
			c0.749,1.234,1.454,1.78,2.931,1.78c3.092,0,4.162-2.649,4.162-5.337c0-2.426-0.889-5.336-3.819-5.336
			c-1.151,0-1.999,0.485-2.505,1.496l-0.082-4.892h-2.972V19.569z"/>
		<path fill-rule="evenodd" clip-rule="evenodd" fill="#1E1D1B" d="M58.226,19.569c-0.162-0.506-0.204-1.013-0.204-1.537v-4.79
			c0-1.233,0.102-2.363-0.948-3.213c-0.829-0.688-2.203-0.931-3.255-0.931c-2.162,0-4.587,0.729-4.89,3.213l2.809,0.265
			c0-1.011,0.829-1.495,1.778-1.495c0.445,0,0.948,0.141,1.213,0.484c0.303,0.384,0.264,0.909,0.264,1.354v0.241
			c-1.253,0.123-2.892,0.204-4.064,0.648c-1.354,0.507-2.304,1.537-2.304,3.053c0,1.939,1.416,2.911,3.233,2.911
			c1.536,0,2.425-0.588,3.275-1.799c-0.021,0.525,0.021,1.07,0.142,1.597H58.226z M54.992,15.061c0,0.727,0.021,1.334-0.405,1.98
			c-0.344,0.525-0.889,0.849-1.496,0.849c-0.827,0-1.313-0.546-1.313-1.354c0-1.496,2.081-1.758,3.214-1.88V15.061z"/>
		<path fill-rule="evenodd" clip-rule="evenodd" fill="#1E1D1B" d="M68.628,19.569V5.703h-2.97v4.689
			c-0.646-0.951-1.416-1.294-2.568-1.294c-2.989,0-3.758,3.012-3.758,5.457c0,2.385,0.809,5.216,3.697,5.216
			c1.314,0,2.164-0.708,2.729-1.799l0.041,1.597H68.628z M65.658,15.282c0,0.507-0.021,1.052-0.265,1.517
			c-0.241,0.465-0.746,0.828-1.293,0.828c-1.475,0-1.636-1.879-1.636-2.992c0-1.231,0.06-3.454,1.758-3.454
			c1.354,0,1.435,1.697,1.435,2.686V15.282z"/>
		<path fill-rule="evenodd" clip-rule="evenodd" fill="#1E1D1B" d="M79.739,14.939c0.02-1.395-0.201-2.85-1.05-4.022
			c-0.848-1.172-2.325-1.819-3.76-1.819c-3.192,0-4.993,2.445-4.993,5.479c0,3.051,2.002,5.194,5.074,5.194
			c3.477,0,4.669-3.033,4.669-3.538l-2.749-0.202c0,0.949-0.91,1.617-1.819,1.617c-1.295,0-1.98-0.99-1.98-2.203l0.02-0.506H79.739z
			 M73.131,13.182c0.102-1.174,0.607-2.143,1.922-2.143c1.293,0,1.655,1.029,1.718,2.143H73.131z"/>
		<rect x="81.051" y="5.703" fill-rule="evenodd" clip-rule="evenodd" fill="#1E1D1B" width="2.97" height="13.866"/>
		<rect x="85.492" y="5.703" fill-rule="evenodd" clip-rule="evenodd" fill="#1E1D1B" width="2.97" height="13.866"/>
	</g>
</g>
</svg>
