<?xml version="1.0" encoding="utf-8"?>
<!-- Generator: Adobe Illustrator 17.0.0, SVG Export Plug-In . SVG Version: 6.00 Build 0)  -->
<!DOCTYPE svg PUBLIC "-//W3C//DTD SVG 1.1//EN" "http://www.w3.org/Graphics/SVG/1.1/DTD/svg11.dtd">
<svg version="1.1" id="Capa_1" xmlns="http://www.w3.org/2000/svg" xmlns:xlink="http://www.w3.org/1999/xlink" x="0px" y="0px"
	 width="1000px" height="1000px" viewBox="0 0 1000 1000" enable-background="new 0 0 1000 1000" xml:space="preserve">
<g id="icon_109" display="none">
	<path display="inline" fill="#1B1A1B" d="M534.752,326.24h-69.504v69.504h69.504V326.24z M673.76,604.256h-69.504v69.504h69.504
		V604.256z M673.76,465.257h-69.504v69.495h69.504V465.257z M534.752,465.257h-69.504v69.495h69.504V465.257z M812.767,465.257
		h-69.504v69.495h69.504L812.767,465.257L812.767,465.257z M534.752,604.256h-69.504v69.504h69.504V604.256z M812.767,326.24
		h-69.504v69.504h69.504L812.767,326.24L812.767,326.24z M812.767,604.256h-69.504v69.504h69.504L812.767,604.256L812.767,604.256z
		 M673.76,326.24h-69.504v69.504h69.504V326.24z M256.745,743.264h-69.513v69.504h69.513V743.264z M256.745,604.256h-69.513v69.504
		h69.513V604.256z M395.753,743.264H326.24v69.504h69.513V743.264z M534.752,743.264h-69.504v69.504h69.504V743.264z M82.977,82.977
		v834.047h834.047V82.977H82.977z M882.271,882.271H117.729V256.736h764.543v625.535H882.271z M256.745,465.257h-69.513v69.495
		h69.513V465.257z M395.753,326.24H326.24v69.504h69.513V326.24z M395.753,465.257H326.24v69.495h69.513V465.257z M395.753,604.256
		H326.24v69.504h69.513V604.256z M673.76,743.264h-69.504v69.504h69.504V743.264z"/>
</g>
<g id="icon_065" display="none">
	<path display="inline" fill="#FFFFFF" d="M82.977,256.728h139.008v-34.743H82.977V256.728z M82.977,604.256h139.008v-34.752H82.977
		V604.256z M82.977,778.016h139.008v-34.743H82.977V778.016z M82.977,430.496h139.008v-34.752H82.977V430.496z M360.992,221.984
		v34.743h556.031v-34.743H360.992z M360.992,430.496h556.031v-34.752H360.992V430.496z M360.992,604.256h556.031v-34.752H360.992
		V604.256z M360.992,778.016h556.031v-34.743H360.992V778.016z"/>
</g>
<g id="icon_254" display="none">
	<path display="inline" fill="#FFFFFF" d="M225.86,174.459c-28.385,0-51.401,23.007-51.401,51.401s23.016,51.401,51.401,51.401
		s51.401-23.007,51.401-51.401S254.246,174.459,225.86,174.459z M431.465,88.791H225.86c-75.705,0-137.07,61.373-137.07,137.07
		v205.605L568.534,911.21l342.674-342.674L431.465,88.791z M123.058,414.331V225.86c0-56.689,46.114-102.802,102.802-102.802
		h188.471l445.477,445.477L568.535,859.808L123.058,414.331z M757.006,534.267L534.267,757.006l34.267,34.267l222.738-222.738
		L757.006,534.267z M688.471,465.733L465.733,688.471L500,722.738L722.738,500L688.471,465.733z"/>
</g>
<g id="icon_273" display="none">
	<path display="inline" fill="#FFFFFF" d="M500,84.465C270.506,84.465,84.465,270.506,84.465,500S270.506,915.535,500,915.535
		S915.535,729.494,915.535,500S729.493,84.465,500,84.465z M116.429,500c0-211.498,172.073-383.571,383.571-383.571
		S883.571,288.502,883.571,500c0,92.88-33.205,178.145-88.338,244.585c-12.378-24.598-28.282-42.578-47.87-47.462l-146.508-26.642
		c-13.313-26.642-13.265-38.223-13.313-53.284c13.313-13.313,39.955-26.626,39.955-39.955
		c13.329-39.939,13.329-66.597,13.329-66.597c6.883-9.957,26.626-26.626,26.626-53.252c0-26.658-26.626-53.284-26.626-66.597
		c0-106.553-54.267-146.508-133.195-146.508c-75.517,0-133.187,39.955-133.187,146.508c0,13.313-26.634,39.939-26.634,66.597
		c0,26.626,19.057,44.17,26.634,53.252c0,0,0,26.658,13.321,66.597c0,13.329,26.642,26.642,39.955,39.955
		c0,13.329,0,26.642-13.313,53.284L267.9,697.123c-22.514,5.618-40.221,28.467-53.214,58.902
		C153.645,688.071,116.429,598.312,116.429,500z"/>
</g>
<g id="icon_265">
	<path fill="#FFFFFF" d="M752.112,298.31H247.888c-27.846,0-50.422,22.577-50.422,50.422v302.535
		c0,27.846,22.577,50.422,50.422,50.422h504.225c27.846,0,50.422-22.577,50.422-50.422V348.733
		C802.535,320.887,779.958,298.31,752.112,298.31z M247.888,323.521h504.225c13.923,0,25.211,11.288,25.211,25.211v214.296H222.676
		V348.733C222.676,334.809,233.965,323.521,247.888,323.521z M752.112,676.479H247.888c-13.923,0-25.211-11.288-25.211-25.211
		V588.24h554.647v63.028C777.324,665.19,766.035,676.479,752.112,676.479z"/>
</g>
</svg>
